<?xml version="1.0" encoding="UTF-8"?> <svg xmlns="http://www.w3.org/2000/svg" xmlns:xlink="http://www.w3.org/1999/xlink" width="306px" height="76px" viewBox="0 0 306 76"><!-- Generator: Sketch 48.1 (47250) - http://www.bohemiancoding.com/sketch --><title>Group</title><desc>Created with Sketch.</desc><defs></defs><g id="Artboard" stroke="none" stroke-width="1" fill="none" fill-rule="evenodd" transform="translate(-544.000000, -628.000000)"><g id="Group-2" transform="translate(213.000000, -84.000000)" fill="#735D8B"><g id="Group" transform="translate(331.000000, 712.000000)"><path d="M0,2.917 C0,1.3 1.3,0 2.91,0 C4.52,0 5.83,1.3 5.83,2.917 C5.83,4.525 4.52,5.833 2.91,5.833 C1.3,5.833 0,4.525 0,2.917 Z M30,2.917 C30,1.3 31.3,0 32.91,0 C34.52,0 35.83,1.3 35.83,2.917 C35.83,4.525 34.52,5.833 32.91,5.833 C31.3,5.833 30,4.525 30,2.917 Z M60,2.917 C60,1.3 61.3,0 62.91,0 C64.52,0 65.83,1.3 65.83,2.917 C65.83,4.525 64.52,5.833 62.91,5.833 C61.3,5.833 60,4.525 60,2.917 Z M89.99,2.917 C89.99,1.3 91.3,0 92.91,0 C94.52,0 95.83,1.3 95.83,2.917 C95.83,4.525 94.52,5.833 92.91,5.833 C91.3,5.833 89.99,4.525 89.99,2.917 Z M120,2.917 C120,1.3 121.3,0 122.91,0 C124.52,0 125.83,1.3 125.83,2.917 C125.83,4.525 124.52,5.833 122.91,5.833 C121.3,5.833 120,4.525 120,2.917 Z M150,2.917 C150,1.3 151.3,0 152.91,0 C154.52,0 155.83,1.3 155.83,2.917 C155.83,4.525 154.52,5.833 152.91,5.833 C151.3,5.833 150,4.525 150,2.917 Z M180,2.917 C180,1.3 181.3,0 182.91,0 C184.52,0 185.82,1.3 185.82,2.917 C185.82,4.525 184.52,5.833 182.91,5.833 C181.3,5.833 180,4.525 180,2.917 Z M210,2.917 C210,1.3 211.3,0 212.91,0 C214.52,0 215.83,1.3 215.83,2.917 C215.83,4.525 214.52,5.833 212.91,5.833 C211.3,5.833 210,4.525 210,2.917 Z M240,2.917 C240,1.3 241.3,0 242.91,0 C244.52,0 245.83,1.3 245.83,2.917 C245.83,4.525 244.52,5.833 242.91,5.833 C241.3,5.833 240,4.525 240,2.917 Z M270,2.917 C270,1.3 271.3,0 272.91,0 C274.52,0 275.83,1.3 275.83,2.917 C275.83,4.525 274.52,5.833 272.91,5.833 C271.3,5.833 270,4.525 270,2.917 Z M300,2.917 C300,1.3 301.3,0 302.9,0 C304.52,0 305.83,1.3 305.83,2.917 C305.83,4.525 304.52,5.833 302.9,5.833 C301.3,5.833 300,4.525 300,2.917 Z" id="Fill-87"></path><path d="M0,37.583 C0,35.975 1.3,34.667 2.91,34.667 C4.52,34.667 5.83,35.975 5.83,37.583 C5.83,39.192 4.52,40.5 2.91,40.5 C1.3,40.5 0,39.192 0,37.583 Z M30,37.583 C30,35.975 31.3,34.667 32.91,34.667 C34.52,34.667 35.83,35.975 35.83,37.583 C35.83,39.192 34.52,40.5 32.91,40.5 C31.3,40.5 30,39.192 30,37.583 Z M60,37.583 C60,35.975 61.3,34.667 62.91,34.667 C64.52,34.667 65.83,35.975 65.83,37.583 C65.83,39.192 64.52,40.5 62.91,40.5 C61.3,40.5 60,39.192 60,37.583 Z M89.99,37.583 C89.99,35.975 91.3,34.667 92.91,34.667 C94.52,34.667 95.83,35.975 95.83,37.583 C95.83,39.192 94.52,40.5 92.91,40.5 C91.3,40.5 89.99,39.192 89.99,37.583 Z M120,37.583 C120,35.975 121.3,34.667 122.91,34.667 C124.52,34.667 125.83,35.975 125.83,37.583 C125.83,39.192 124.52,40.5 122.91,40.5 C121.3,40.5 120,39.192 120,37.583 Z M150,37.583 C150,35.975 151.3,34.667 152.91,34.667 C154.52,34.667 155.83,35.975 155.83,37.583 C155.83,39.192 154.52,40.5 152.91,40.5 C151.3,40.5 150,39.192 150,37.583 Z M180,37.583 C180,35.975 181.3,34.667 182.91,34.667 C184.52,34.667 185.82,35.975 185.82,37.583 C185.82,39.192 184.52,40.5 182.91,40.5 C181.3,40.5 180,39.192 180,37.583 Z M210,37.583 C210,35.975 211.3,34.667 212.91,34.667 C214.52,34.667 215.83,35.975 215.83,37.583 C215.83,39.192 214.52,40.5 212.91,40.5 C211.3,40.5 210,39.192 210,37.583 Z M240,37.583 C240,35.975 241.3,34.667 242.91,34.667 C244.52,34.667 245.83,35.975 245.83,37.583 C245.83,39.192 244.52,40.5 242.91,40.5 C241.3,40.5 240,39.192 240,37.583 Z M270,37.583 C270,35.975 271.3,34.667 272.91,34.667 C274.52,34.667 275.83,35.975 275.83,37.583 C275.83,39.192 274.52,40.5 272.91,40.5 C271.3,40.5 270,39.192 270,37.583 Z M300,37.583 C300,35.975 301.3,34.667 302.9,34.667 C304.52,34.667 305.83,35.975 305.83,37.583 C305.83,39.192 304.52,40.5 302.9,40.5 C301.3,40.5 300,39.192 300,37.583 Z" id="Fill-88"></path><path d="M0,72.258 C0,70.642 1.3,69.341 2.91,69.341 C4.52,69.341 5.83,70.642 5.83,72.258 C5.83,73.867 4.52,75.167 2.91,75.167 C1.3,75.167 0,73.867 0,72.258 Z M30,72.258 C30,70.642 31.3,69.341 32.91,69.341 C34.52,69.341 35.83,70.642 35.83,72.258 C35.83,73.867 34.52,75.167 32.91,75.167 C31.3,75.167 30,73.867 30,72.258 Z M60,72.258 C60,70.642 61.3,69.341 62.91,69.341 C64.52,69.341 65.83,70.642 65.83,72.258 C65.83,73.867 64.52,75.167 62.91,75.167 C61.3,75.167 60,73.867 60,72.258 Z M89.99,72.258 C89.99,70.642 91.3,69.341 92.91,69.341 C94.52,69.341 95.83,70.642 95.83,72.258 C95.83,73.867 94.52,75.167 92.91,75.167 C91.3,75.167 89.99,73.867 89.99,72.258 Z M120,72.258 C120,70.642 121.3,69.341 122.91,69.341 C124.52,69.341 125.83,70.642 125.83,72.258 C125.83,73.867 124.52,75.167 122.91,75.167 C121.3,75.167 120,73.867 120,72.258 Z M150,72.258 C150,70.642 151.3,69.341 152.91,69.341 C154.52,69.341 155.83,70.642 155.83,72.258 C155.83,73.867 154.52,75.167 152.91,75.167 C151.3,75.167 150,73.867 150,72.258 Z M180,72.258 C180,70.642 181.3,69.341 182.91,69.341 C184.52,69.341 185.82,70.642 185.82,72.258 C185.82,73.867 184.52,75.167 182.91,75.167 C181.3,75.167 180,73.867 180,72.258 Z M210,72.258 C210,70.642 211.3,69.341 212.91,69.341 C214.52,69.341 215.83,70.642 215.83,72.258 C215.83,73.867 214.52,75.167 212.91,75.167 C211.3,75.167 210,73.867 210,72.258 Z M240,72.258 C240,70.642 241.3,69.341 242.91,69.341 C244.52,69.341 245.83,70.642 245.83,72.258 C245.83,73.867 244.52,75.167 242.91,75.167 C241.3,75.167 240,73.867 240,72.258 Z M270,72.258 C270,70.642 271.3,69.341 272.91,69.341 C274.52,69.341 275.83,70.642 275.83,72.258 C275.83,73.867 274.52,75.167 272.91,75.167 C271.3,75.167 270,73.867 270,72.258 Z M300,72.258 C300,70.642 301.3,69.341 302.9,69.341 C304.52,69.341 305.83,70.642 305.83,72.258 C305.83,73.867 304.52,75.167 302.9,75.167 C301.3,75.167 300,73.867 300,72.258 Z" id="Fill-89"></path></g></g></g></svg> 